<svg aria-hidden="true" style="position: absolute; width: 0; height: 0; overflow: hidden;" version="1.1" xmlns="http://www.w3.org/2000/svg" xmlns:xlink="http://www.w3.org/1999/xlink">
<defs>
<symbol id="icon-logo" viewBox="0 0 32 32">
<path d="M16 27.5c-6.351 0-11.5-5.149-11.5-11.5s5.149-11.5 11.5-11.5 11.5 5.149 11.5 11.5-5.149 11.5-11.5 11.5zM15.938 10.096c3.387 0 4.551 2.268 5.5 3.898 1.35 2.32 1.491 3.894 4.486 5.108 0.327-1.576 0.327-1.407 0.327-3.166 0-5.695-4.617-10.313-10.313-10.313s-10.313 4.617-10.313 10.313c0 1.451-0.2 1.699 0.319 3.166 2.619-0.861 3.845-3.649 4.334-4.893 0.691-1.757 2.273-4.114 5.66-4.114zM16 13.173c-2.141 0-3.897 4.003-4.366 4.96s-2.073 3.181-4.288 3.738c1.848 2.777 5.006 4.607 8.592 4.607 3.556 0 6.691-1.8 8.546-4.538-1.854-1.347-2.83-1.914-4.191-3.807-1.124-1.563-2.151-4.96-4.292-4.96z"></path>
</symbol>
<symbol id="icon-arrow" viewBox="0 0 32 32">
<path stroke-linejoin="round" stroke-linecap="round" stroke-miterlimit="4" stroke-width="3.2" d="M8 12l8 8 8-8"></path>
</symbol>
<symbol id="icon-close" viewBox="0 0 32 32">
<path stroke-linejoin="round" stroke-linecap="round" stroke-miterlimit="4" stroke-width="2.4" d="M24 8l-16 16"></path>
<path stroke-linejoin="round" stroke-linecap="round" stroke-miterlimit="4" stroke-width="2.4" d="M8 8l16 16"></path>
</symbol>
<symbol id="icon-heart" viewBox="0 0 32 32">
<path stroke-linejoin="round" stroke-linecap="round" stroke-miterlimit="4" stroke-width="2.6667" d="M27.787 6.147c-0.681-0.681-1.49-1.222-2.38-1.591s-1.844-0.559-2.807-0.559c-0.963 0-1.917 0.19-2.807 0.559s-1.698 0.909-2.379 1.591l-1.413 1.413-1.413-1.413c-1.376-1.376-3.241-2.148-5.187-2.148s-3.811 0.773-5.187 2.148c-1.376 1.376-2.148 3.241-2.148 5.187s0.773 3.811 2.148 5.187l11.787 11.787 11.787-11.787c0.681-0.681 1.222-1.49 1.591-2.38s0.558-1.844 0.558-2.807-0.19-1.917-0.558-2.807c-0.369-0.89-0.909-1.699-1.591-2.38z"></path>
</symbol>
</defs>
</svg>
